<svg width="101" height="100" xmlns="http://www.w3.org/2000/svg" stroke="null" style="vector-effect: non-scaling-stroke;">
 <g stroke="null" id="Layer_1">
  <title stroke="null">Layer 1</title>
  <path stroke="#000" id="svg_3" d="m75.92356,39.82466c-4.94255,-3.07687 -11.82342,-2.08955 -15.36646,2.21064l-27.78816,33.7392c-2.5295,3.0686 -1.71816,7.34365 1.81533,9.54378c3.53347,2.19603 8.44476,1.49041 10.97426,-1.58224l19.62063,-23.81976l-2.55768,-1.59482l-19.61764,23.82181l0,0c-1.51949,1.83907 -4.46783,2.26488 -6.58206,0.94985c-2.11716,-1.31722 -2.60207,-3.88262 -1.08558,-5.72588l0,0l27.78456,-33.73715l0.00358,-0.00214l-0.00598,-0.00205c2.52651,-3.06226 7.45339,-3.7699 10.97724,-1.57602c3.52387,2.19596 4.33887,6.48152 1.81593,9.54583l0,-0.00204l-30.45686,36.97891l0.00299,0.0042c-3.53641,4.2918 -10.43294,5.28332 -15.36945,2.21063c-4.93647,-3.07901 -6.0725,-9.06997 -2.53907,-13.36597l22.13452,-26.87362l-2.55827,-1.59266l-22.13388,26.87363c-4.55307,5.52759 -3.09,13.21555 3.26881,17.17335c6.35878,3.96198 15.19961,2.68865 19.75268,-2.8368l30.45617,-36.98108c3.53352,-4.29804 2.40049,-10.27857 -2.5456,-13.35961l0,0z" stroke-width="2" fill="#fff"/>
 </g>
</svg>